# xmcd CD database file
#
# Track frame offsets:
#	150
#	19222
#	33148
#	54489
#	81907
#	104477
#	126885
#	149605
#	165836
#	195107
#	210927
#	229948
#
# Disc length: 3310 seconds
#
# Revision: 0
# Processed by: cddbd v1.5.2PL0 Copyright (c) Steve Scherf et al.
# Submitted via: CDex 1.70beta2
#
DISCID=950cec0c
DTITLE=Vapiano - Quinto Anniversario
DYEAR=2007
DGENRE=Blues
TTITLE0=Frankie
TTITLE1=Ariund'n'Around
TTITLE2=Ten Minutes
TTITLE3=Blackberry
TTITLE4=Post It
TTITLE5=The Game
TTITLE6=What Is Jazz
TTITLE7=What's Next
TTITLE8=We Can
TTITLE9=Let It Go
TTITLE10=Somewhere In Between
TTITLE11=Cancun
EXTD=YEAR: 2007
EXTT0=
EXTT1=
EXTT2=
EXTT3=
EXTT4=
EXTT5=
EXTT6=
EXTT7=
EXTT8=
EXTT9=
EXTT10=
EXTT11=
PLAYORDER=
